<svg width="67" height="66" viewBox="0 0 67 66" fill="none" xmlns="http://www.w3.org/2000/svg">
<path d="M64.4949 29.415C62.4562 29.415 60.7883 28.1281 60.2323 26.1058V25.922C59.6763 23.8997 60.6029 21.6936 62.4562 20.7744C63.3829 20.2228 63.7535 18.9359 63.1976 18.0167L61.5296 15.0752C60.9736 14.156 59.6763 13.7883 58.7496 14.3398C56.8963 15.4429 54.6724 15.0752 53.1897 13.6045C51.7071 12.1337 51.3364 9.92758 52.4484 8.08914C53.0044 7.16992 52.6337 5.88301 51.7071 5.33148L48.7418 3.67688C47.6298 3.12535 46.3325 3.49304 45.7765 4.41226C44.6645 6.2507 42.6259 6.98607 40.7726 6.43454H40.5873C38.5487 5.88301 37.066 4.04457 37.066 2.02228C37.066 0.91922 36.1394 0 35.0274 0H31.8768C30.5795 0 29.6528 0.91922 29.6528 2.20613C29.6528 4.22841 28.3555 5.88301 26.3169 6.43454H25.9462C24.0929 6.98607 21.8689 6.06685 20.9423 4.41226C20.3863 3.49304 19.089 3.12535 17.977 3.67688L15.1971 5.33148C14.2704 5.88301 13.8998 7.16992 14.4557 8.08914C15.5677 9.92758 15.1971 12.1337 13.7144 13.6045C12.2318 15.0752 10.0078 15.4429 8.15452 14.3398C7.04254 13.7883 5.93056 14.156 5.37457 15.0752L3.7066 18.0167C3.15061 18.9359 3.52127 20.2228 4.44792 20.7744C6.30122 21.8774 7.22787 23.8997 6.67188 25.922C5.93056 27.9443 4.07726 29.415 2.03863 29.415C0.92665 29.415 0 30.3343 0 31.4373V34.5627C0 35.8496 0.92665 36.7688 2.22396 36.7688C4.26259 36.7688 5.93056 38.0557 6.48655 40.078V40.2618C7.04254 42.2841 6.11589 44.4902 4.26259 45.4095C3.33594 45.961 2.96528 47.2479 3.52127 48.1671L5.18924 51.1086C5.74523 52.0279 7.04254 52.3955 7.96919 51.844C9.82249 50.7409 12.0465 51.1086 13.5291 52.5794C15.0117 54.0501 15.3824 56.2563 14.2704 58.0947C13.7144 59.0139 14.0851 60.3008 15.0117 60.8524L18.1623 62.507C19.089 63.0585 20.3863 62.6908 20.9423 61.7716C22.0543 59.9331 24.0929 59.0139 26.1315 59.5655H26.3169C28.3555 60.117 29.6528 61.7716 29.6528 63.7939C29.6528 64.8969 30.5795 66 31.8768 66H35.0274C36.1394 66 37.2513 65.0808 37.2513 63.7939C37.2513 61.7716 38.5487 60.117 40.5873 59.5655H40.7726C42.8112 59.0139 45.0352 59.9331 45.9619 61.7716C46.5178 62.6908 47.8152 63.0585 48.7418 62.507L51.7071 60.8524C52.6337 60.3008 53.0044 59.0139 52.4484 58.0947C51.3364 56.2563 51.7071 54.0501 53.1897 52.5794C54.6724 51.1086 56.8963 50.7409 58.7496 51.844C59.6763 52.3955 60.9736 52.0279 61.5296 51.1086L63.1976 48.1671C63.7535 47.2479 63.3829 45.961 62.4562 45.4095C60.6029 44.3064 59.6763 42.2841 60.2323 40.2618V40.078C60.7883 38.0557 62.4562 36.7688 64.4949 36.7688C65.6068 36.7688 66.7188 35.8496 66.7188 34.5627V31.4373C66.7188 30.3343 65.7922 29.415 64.4949 29.415ZM42.6259 27.5766H33.3594V29.415H42.6259V45.961H35.2127V55.1532H31.5061V45.961H24.0929V38.6072H33.3594V36.7688H24.0929V20.2228H31.5061V11.0306H35.2127V20.2228H42.6259V27.5766Z" fill="#5D69F7"/>
</svg>
